# xmcd CD database file
#
# Track frame offsets:
#	150
#	24889
#	44699
#	84712
#	113745
#	134505
#	165282
#	182572
#	204608
#	229961
#	247761
#	280703
#
# Disc length: 4128 seconds
#
# Revision: 0
# Processed by: cddbd v1.5.2PL0 Copyright (c) Steve Scherf et al.
# Submitted via: CDex 1.50
#
DISCID=99101e0c
DTITLE=Various Artist - Night music - Jazz collection Disc 2
DYEAR=1900
DGENRE=Jazz
TTITLE0=Eliane Elias - Angela
TTITLE1=Shirley - Horn - Loving you
TTITLE2=Jimmy McGriff - One minute 'til six
TTITLE3=Diana Krall - Bouleuard of broken dreams
TTITLE4=Freddie Hubbard - Fragile
TTITLE5=Terry Callier - Poeople get ready-Brotherly love
TTITLE6=Dave Grusin - Maybe
TTITLE7=Dodo Green - My hour of need
TTITLE8=Pieces of a dream - Club Jazz (Quite storm)
TTITLE9=Vincius Cantuaria - Vivo islodo do mondo
TTITLE10=Abbey Lincoln - Midnight sun
TTITLE11=Joe Henderson and Sting - It ani't neccessarly so
EXTD=
EXTT0=
EXTT1=
EXTT2=
EXTT3=
EXTT4=
EXTT5=
EXTT6=
EXTT7=
EXTT8=
EXTT9=
EXTT10=
EXTT11=
PLAYORDER=
